<svg id="icons" enable-background="new 0 0 64 64" height="512" viewBox="0 0 64 64" width="512" xmlns="http://www.w3.org/2000/svg"><path d="m32 14c-13.25 0-24.81 7.24-31 18 6.19 10.76 17.75 18 31 18s24.811-7.24 31-18c-6.189-10.76-17.75-18-31-18z" fill="#e6e9ed"/><path d="m32 18c-7.729 0-14 6.27-14 14s6.271 14 14 14c7.721 0 14-6.27 14-14s-6.279-14-14-14z" fill="#5d9cec"/><path d="m38 28-6 4-6-4 6-4z" fill="#e6e9ed"/><path d="m38 28v6.99l-6 4v-6.99z" fill="#ccd1d9"/><path d="m32 32v6.99l-6-4v-6.99z" fill="#f5f7fa"/><path d="m32 50.999c-13.092 0-25.303-7.089-31.867-18.501-.177-.31-.177-.688 0-.998 6.564-11.412 18.775-18.501 31.867-18.501s25.303 7.089 31.867 18.501c.177.31.177.688 0 .998-6.564 11.412-18.775 18.501-31.867 18.501zm-29.841-19c6.274 10.501 17.654 17 29.841 17s23.566-6.499 29.841-17c-6.274-10.501-17.654-17-29.841-17s-23.566 6.499-29.841 17z"/><path d="m32 46.999c-8.271 0-15-6.729-15-15s6.729-15 15-15 15 6.729 15 15-6.729 15-15 15zm0-28c-7.168 0-13 5.832-13 13s5.832 13 13 13 13-5.832 13-13-5.832-13-13-13z"/><path d="m32 39.992c-.553 0-1-.447-1-1v-6.996c0-.553.447-1 1-1s1 .447 1 1v6.996c0 .553-.447 1-1 1z"/><path d="m32.001 39.992c-.323 0-.641-.156-.833-.445-.307-.46-.182-1.081.277-1.387l6.001-3.998c.46-.307 1.08-.183 1.387.277s.182 1.081-.277 1.387l-6.001 3.998c-.171.114-.364.168-.554.168z"/><path d="m31.999 39.992c-.19 0-.383-.055-.554-.168l-6.001-3.998c-.459-.306-.584-.927-.277-1.387.306-.46.925-.584 1.387-.277l6.001 3.998c.459.306.584.927.277 1.387-.192.289-.51.445-.833.445z"/><path d="m32.001 33c-.323 0-.641-.156-.833-.445-.307-.46-.183-1.08.277-1.387l6.001-4c.46-.307 1.08-.183 1.387.277s.183 1.08-.277 1.387l-6.001 4c-.171.113-.364.168-.554.168z"/><path d="m31.999 33c-.19 0-.384-.055-.554-.168l-6.001-4.002c-.46-.307-.584-.928-.277-1.387.306-.46.927-.583 1.387-.277l6.001 4.002c.46.307.584.928.277 1.387-.192.289-.51.445-.833.445z"/><path d="m26 29c-.323 0-.641-.156-.833-.445-.307-.46-.183-1.08.277-1.387l6.001-4.001c.46-.307 1.08-.183 1.387.277s.183 1.08-.277 1.387l-6.001 4.001c-.171.113-.364.168-.554.168z"/><path d="m38 29.002c-.19 0-.384-.055-.554-.168l-6.001-4.003c-.46-.307-.584-.928-.277-1.387.306-.46.929-.584 1.387-.277l6.001 4.003c.46.307.584.928.277 1.387-.192.289-.51.445-.833.445z"/><path d="m25.999 35.994c-.553 0-1-.447-1-1v-6.994c0-.553.447-1 1-1s1 .447 1 1v6.994c0 .553-.447 1-1 1z"/><path d="m38.001 35.994c-.553 0-1-.447-1-1v-6.994c0-.553.447-1 1-1s1 .447 1 1v6.994c0 .553-.447 1-1 1z"/><path d="m1 14.003c-.553 0-1-.447-1-1v-12.004c0-.553.447-1 1-1s1 .447 1 1v12.004c0 .553-.447 1-1 1z"/><path d="m13.004 1.999h-12.004c-.553 0-1-.447-1-1s.447-1 1-1h12.004c.553 0 1 .447 1 1s-.447 1-1 1z"/><path d="m62.999 1.999h-12.004c-.553 0-1-.447-1-1s.447-1 1-1h12.004c.553 0 1 .447 1 1s-.447 1-1 1z"/><path d="m62.999 14.003c-.553 0-1-.447-1-1v-12.004c0-.553.447-1 1-1s1 .447 1 1v12.004c0 .553-.447 1-1 1z"/><path d="m1 64.001c-.553 0-1-.447-1-1v-12.004c0-.553.447-1 1-1s1 .447 1 1v12.004c0 .553-.447 1-1 1z"/><path d="m13.004 64.001h-12.004c-.553 0-1-.447-1-1s.447-1 1-1h12.004c.553 0 1 .447 1 1s-.447 1-1 1z"/><path d="m62.999 64.001h-12.004c-.553 0-1-.447-1-1s.447-1 1-1h12.004c.553 0 1 .447 1 1s-.447 1-1 1z"/><path d="m62.999 64.001c-.553 0-1-.447-1-1v-12.004c0-.553.447-1 1-1s1 .447 1 1v12.004c0 .553-.447 1-1 1z"/></svg>